<svg width="4320" height="4320" xmlns="http://www.w3.org/2000/svg"><style/><g stroke-linecap="round" stroke-width="10.8" fill="none" stroke="#fff"><path d="M1080 3024V1296l216-216h1728l216 216v1728l-216 216H1296l-216-216"/><path d="M1116 2966.4V1281.6l237.6-237.6h1684.8l237.6 237.6v1684.8L3038.4 3204H1353.6L1116 2966.4"/><path d="M1152 2908.8V1267.2l259.2-259.2h1641.6l259.2 259.2v1641.6L3052.8 3168H1411.2L1152 2908.8"/><path d="M1188 2851.2V1252.8L1468.8 972h1598.4l280.8 280.8v1598.4L3067.2 3132H1468.8L1188 2851.2"/><path d="M1224 2793.6V1238.4L1526.4 936h1555.2l302.4 302.4v1555.2L3081.6 3096H1526.4L1224 2793.6"/><path d="M1260 2736V1224l324-324h1512l324 324v1512l-324 324H1584l-324-324"/><path d="M1296 2678.4V1209.6L1641.6 864h1468.8l345.6 345.6v1468.8L3110.4 3024H1641.6L1296 2678.4"/><path d="M1332 2620.8V1195.2L1699.2 828h1425.6l367.2 367.2v1425.6L3124.8 2988H1699.2L1332 2620.8"/><path d="M1368 2563.2V1180.8L1756.8 792h1382.4l388.8 388.8v1382.4L3139.2 2952H1756.8L1368 2563.2"/><path d="M1404 2505.6V1166.4L1814.4 756h1339.2l410.4 410.4v1339.2L3153.6 2916H1814.4L1404 2505.6"/><path d="M1440 2448V1152l432-432h1296l432 432v1296l-432 432H1872l-432-432"/><path d="M1476 2390.4V1137.6L1929.6 684h1252.8l453.6 453.6v1252.8L3182.4 2844H1929.6L1476 2390.4"/><path d="M1512 2332.8V1123.2L1987.2 648h1209.6l475.2 475.2v1209.6L3196.8 2808H1987.2L1512 2332.8"/><path d="M1548 2275.2V1108.8L2044.8 612h1166.4l496.8 496.8v1166.4L3211.2 2772H2044.8L1548 2275.2"/><path d="M1584 2217.6V1094.4L2102.4 576h1123.2l518.4 518.4v1123.2L3225.6 2736H2102.4L1584 2217.6"/><path d="M1620 2160V1080l540-540h1080l540 540v1080l-540 540H2160l-540-540"/><path d="M1656 2102.4V1065.6L2217.6 504h1036.8l561.6 561.6v1036.8L3254.4 2664H2217.6L1656 2102.4"/><path d="M1692 2044.8v-993.6L2275.2 468h993.6l583.2 583.2v993.6L3268.8 2628h-993.6L1692 2044.8"/><path d="M1728 1987.2v-950.4L2332.8 432h950.4l604.8 604.8v950.4L3283.2 2592h-950.4L1728 1987.2"/><path d="M1764 1929.6v-907.2L2390.4 396h907.2l626.4 626.4v907.2L3297.6 2556h-907.2L1764 1929.6"/><path d="M1800 1872v-864l648-648h864l648 648v864l-648 648h-864l-648-648"/><path d="M1836 1814.4V993.6L2505.6 324h820.8L3996 993.6v820.8L3326.4 2484h-820.8L1836 1814.4"/><path d="M1872 1756.8V979.2L2563.2 288h777.6L4032 979.2v777.6L3340.8 2448h-777.6L1872 1756.8"/><path d="M1908 1699.2V964.8L2620.8 252h734.4L4068 964.8v734.4L3355.2 2412h-734.4L1908 1699.2"/><path d="M1944 1641.6V950.4L2678.4 216h691.2L4104 950.4v691.2L3369.6 2376h-691.2L1944 1641.6"/><path d="M1980 1584V936l756-756h648l756 756v648l-756 756h-648l-756-756"/><path d="M2016 1526.4V921.6L2793.6 144h604.8L4176 921.6v604.8L3398.4 2304h-604.8L2016 1526.4"/><path d="M2052 1468.8V907.2L2851.2 108h561.6L4212 907.2v561.6L3412.8 2268h-561.6L2052 1468.8"/><path d="M2088 1411.2V892.8L2908.8 72h518.4L4248 892.8v518.4L3427.2 2232h-518.4L2088 1411.2"/><path d="M2124 1353.6V878.4L2966.4 36h475.2L4284 878.4v475.2L3441.6 2196h-475.2L2124 1353.6"/></g></svg>
