<svg xmlns="http://www.w3.org/2000/svg" viewBox="0 0 254.16 34.56"><path d="M26.4 20.16h-9.12V14.4h15.84v13.44l-6.72 6.24H6.72L0 27.84V6.72L6.72.48h22.56v5.76H9.84L6.72 9.12v16.32l3.12 2.88h13.44l3.12-2.88zM100.08.48h6.72v33.6h-6.48L81.84 11v23h-6.72V.48h6.48l18.48 23zM140.4 0l6.72 6.24v22.08l-6.72 6.24H121l-6.72-6.24V6.24L121 0zM121 8.64v17.28l3.12 2.88h13.2l3.12-2.88V8.64l-3.12-2.88h-13.2zm13.58 1.78l2.67 2.48v8.76l-2.67 2.48h-7.72l-2.67-2.48V12.9l2.67-2.48zm48.54 23.66h-22.56l-6.72-6.24V6.72l6.72-6.24h22.56v2.76h-20.44l-6.12 5.88v16.32l6.12 5.88h20.44zm15.6 0V6.24h-12.48V.48h31.68v5.76h-12.48v27.84zM247.44 0l6.72 6.24v22.08l-6.72 6.24H228l-6.72-6.24V6.24L228 0zm-21.52 5.18v24.2l3.79 4h16l3.78-4V5.18l-3.78-4h-16zm18-2.81l4.3 5.39v19l-4.3 5.39h-12.43l-4.3-5.39v-19l4.3-5.39zm-13.75 4.47v20.89l2.42 3.48h10.26l2.42-3.48V6.84l-2.42-3.48h-10.26zm11.62-1.08l2.82 4.16v14.73l-2.82 4.16h-8.14l-2.82-4.16V9.92l2.82-4.16zm-9 3.45v16.14l1.58 2.7h6.71l1.59-2.7V9.21l-1.59-2.69h-6.71zm7.2.65l1.57 2.68V22L240 24.7h-4.53l-1.58-2.7v-9.46l1.56-2.68zm-5 2.22v10.4l.88 1.73h3.74l.88-1.73v-10.4l-.88-1.73h-3.74zm4.07-1l.91 2.15v7.6L239 23h-2.6l-.92-2.15v-7.6l.92-2.15zm-2.92 1.78v8.34l.51 1.39h2.18l.51-1.39v-8.3l-.51-1.39h-2.18zm2.43-.09l.57 1.62v5.71l-.57 1.61h-1.66l-.57-1.61v-5.67l.57-1.62zm-1.84 1.34v6.26l.33 1.05h1.36l.32-1.05v-6.22l-.32-1H237zm1.49-.22l.33 1.21v4.28l-.33 1.21h-1l-.33-1.21v-4.24l.33-1.21zm-1.06 1v4.7l.18.78h.79l.19-.78v-4.7l-.19-.78h-.79zm-55.98 15.79h-18l-5.36-5V8.86l5.36-5h18v2.2h-16.29L160 10.77v13l4.88 4.69h16.29zm-1.69-2.88h-14.12l-4.2-3.91V10.67l4.2-3.9h14.12V8.5H166.7l-3.83 3.67v10.22l3.83 3.68h12.79zm-2.28-2.62H166.6l-3.16-2.93v-9.93l3.16-2.94h10.61v1.3h-9.61l-2.88 2.76v7.68l2.88 2.76h9.61zM175.27 23h-7.62l-2.26-2.1v-7.18l2.26-2.11h7.62v.93h-6.9l-2.07 2V20l2.07 2h6.9zM174 21.44h-5.58l-1.72-1.54v-5.23l1.67-1.55H174v.69h-5.06l-1.51 1.45v4l1.51 1.46H174zM62.12.48h5.76v5.76h-5.76zm-7.13 0h5.76v5.76h-5.76zm-7.03 0h5.76v5.76h-5.76zm-7.13 0h5.76v5.76h-5.76zm5.76 14.45v5.76h-5.76v-5.76zm0-7.13v5.76h-5.76V7.8zm.01 20.7v5.76h-5.76V28.5zm0-7.13v5.76h-5.76v-5.76zm7.12 12.9h-5.76v-5.76h5.76zm7.13 0h-5.76v-5.76h5.76zm1.27-5.77h5.76v5.76h-5.76zm-8.4-7.81h-5.76v-5.76h5.76zm1.27-5.76h5.76v5.76h-5.76z"/></svg>